<svg width="1200" height="900" viewBox="0 0 1200 900" fill="none" xmlns="http://www.w3.org/2000/svg">
  <rect width="1200" height="900" fill="#0A1320"/>
  <rect y="500" width="1200" height="400" fill="#17120C"/>
  <rect x="180" y="140" width="720" height="520" rx="12" fill="#8A2E1B"/>
  <rect x="245" y="82" width="590" height="76" rx="14" fill="#8A2E1B"/>
  <rect x="230" y="170" width="590" height="430" fill="#D39A35"/>
  <rect x="210" y="198" width="632" height="58" fill="#8A2E1B"/>
  <rect x="210" y="356" width="632" height="58" fill="#8A2E1B"/>
  <rect x="210" y="514" width="632" height="58" fill="#8A2E1B"/>
  <rect x="240" y="608" width="570" height="140" fill="#F1E7D4"/>
  <rect x="302" y="242" width="118" height="102" fill="#243B5A"/>
  <rect x="512" y="242" width="178" height="102" fill="#243B5A"/>
  <rect x="302" y="404" width="118" height="102" fill="#243B5A"/>
  <rect x="512" y="404" width="178" height="102" fill="#243B5A"/>
  <rect x="302" y="566" width="118" height="102" fill="#243B5A"/>
  <rect x="512" y="566" width="178" height="102" fill="#243B5A"/>
  <rect x="702" y="212" width="92" height="136" fill="#243B5A"/>
  <rect x="702" y="374" width="92" height="136" fill="#243B5A"/>
  <rect x="702" y="536" width="92" height="136" fill="#243B5A"/>
  <rect x="120" y="675" width="960" height="18" fill="#0A0A0A" fill-opacity="0.35"/>
  <g opacity="0.8">
    <path d="M250 90V610" stroke="#F6D983" stroke-width="5"/>
    <path d="M330 75V660" stroke="#F6D983" stroke-width="5"/>
    <path d="M410 55V610" stroke="#F6D983" stroke-width="5"/>
    <path d="M490 75V655" stroke="#F6D983" stroke-width="5"/>
    <path d="M570 60V610" stroke="#F6D983" stroke-width="5"/>
    <path d="M650 75V655" stroke="#F6D983" stroke-width="5"/>
    <path d="M730 60V610" stroke="#F6D983" stroke-width="5"/>
    <path d="M810 72V610" stroke="#F6D983" stroke-width="5"/>
  </g>
  <circle cx="960" cy="152" r="132" fill="#12273A"/>
  <path d="M926 102C982 194 1010 266 1014 372" stroke="#173E2D" stroke-width="48" stroke-linecap="round"/>
  <path d="M890 164C960 244 986 302 1000 388" stroke="#173E2D" stroke-width="32" stroke-linecap="round"/>
  <rect x="772" y="594" width="196" height="62" rx="10" fill="#162A37"/>
  <text x="790" y="634" fill="#F6F0DF" font-family="Arial, sans-serif" font-size="28">Emerald Euphoria</text>
  <text x="220" y="834" fill="#D9B55C" font-family="Georgia, serif" font-size="48">Luxury night facade</text>
</svg>
