<svg width="1200" height="900" viewBox="0 0 1200 900" fill="none" xmlns="http://www.w3.org/2000/svg">
  <rect width="1200" height="900" fill="#0E1118"/>
  <rect y="610" width="1200" height="290" fill="#161B24"/>
  <rect x="140" y="120" width="920" height="560" rx="28" fill="#1B2430"/>
  <rect x="200" y="200" width="200" height="280" rx="22" fill="#2C3D52"/>
  <rect x="468" y="226" width="492" height="238" rx="24" fill="#D2CCC7"/>
  <rect x="468" y="194" width="492" height="66" rx="18" fill="#4F3B40"/>
  <rect x="240" y="540" width="188" height="122" rx="26" fill="#798B99"/>
  <rect x="472" y="534" width="214" height="84" rx="18" fill="#5D707B"/>
  <rect x="788" y="508" width="164" height="156" rx="26" fill="#798B99"/>
  <circle cx="610" cy="334" r="28" fill="#D95C72"/>
  <circle cx="682" cy="304" r="22" fill="#D9B55C"/>
  <circle cx="752" cy="334" r="28" fill="#7CC5A8"/>
  <circle cx="824" cy="304" r="22" fill="#D95C72"/>
  <path d="M596 356C642 428 706 456 760 480" stroke="#D9B55C" stroke-width="5" stroke-dasharray="10 14"/>
  <rect x="150" y="150" width="90" height="40" rx="10" fill="#D9B55C"/>
  <text x="170" y="176" fill="#2A1B00" font-family="Arial, sans-serif" font-size="22">Events</text>
</svg>
