<svg width="1200" height="900" viewBox="0 0 1200 900" fill="none" xmlns="http://www.w3.org/2000/svg">
  <rect width="1200" height="900" fill="#0D1820"/>
  <rect x="0" y="610" width="1200" height="290" fill="#131D24"/>
  <rect x="120" y="120" width="960" height="560" rx="26" fill="#14232C"/>
  <rect x="180" y="200" width="260" height="180" rx="18" fill="#273D4E"/>
  <rect x="210" y="230" width="200" height="120" rx="12" fill="#0C1014"/>
  <rect x="500" y="256" width="470" height="210" rx="24" fill="#D6D0C9"/>
  <rect x="500" y="228" width="470" height="62" rx="14" fill="#4D362F"/>
  <rect x="552" y="302" width="110" height="128" rx="18" fill="#F5EFEA"/>
  <rect x="788" y="302" width="110" height="128" rx="18" fill="#F5EFEA"/>
  <rect x="660" y="322" width="136" height="108" rx="18" fill="#6A4C41"/>
  <rect x="470" y="560" width="240" height="70" rx="16" fill="#556A73"/>
  <rect x="820" y="538" width="180" height="140" rx="22" fill="#7B8E95"/>
  <rect x="240" y="474" width="164" height="164" rx="22" fill="#718892"/>
  <circle cx="190" cy="160" r="10" fill="#D9B55C"/>
  <circle cx="220" cy="160" r="10" fill="#D9B55C"/>
  <circle cx="250" cy="160" r="10" fill="#D9B55C"/>
  <text x="170" y="822" fill="#D9B55C" font-family="Georgia, serif" font-size="46">Group hangout room</text>
</svg>
