<svg width="1200" height="900" viewBox="0 0 1200 900" fill="none" xmlns="http://www.w3.org/2000/svg">
  <rect width="1200" height="900" fill="#EFE4D4"/>
  <rect x="0" y="0" width="1200" height="200" fill="#E5D4C0"/>
  <rect x="160" y="160" width="880" height="140" rx="28" fill="#FAF6EE"/>
  <rect x="100" y="260" width="240" height="340" fill="#F2E8D8"/>
  <rect x="118" y="278" width="204" height="294" fill="#D8E0E5"/>
  <rect x="140" y="296" width="36" height="250" fill="#1E2535"/>
  <rect x="264" y="296" width="36" height="250" fill="#1E2535"/>
  <rect x="700" y="380" width="370" height="260" rx="18" fill="#D1D7D6"/>
  <rect x="360" y="420" width="500" height="210" rx="28" fill="#FFFFFF"/>
  <rect x="360" y="396" width="500" height="56" rx="16" fill="#614232"/>
  <rect x="440" y="450" width="120" height="130" rx="16" fill="#FFFFFF"/>
  <rect x="660" y="450" width="120" height="130" rx="16" fill="#FFFFFF"/>
  <rect x="500" y="470" width="120" height="120" rx="14" fill="#5C3A31"/>
  <rect x="600" y="470" width="120" height="120" rx="14" fill="#5C3A31"/>
  <rect x="462" y="450" width="76" height="76" rx="10" fill="#5C3A31"/>
  <rect x="682" y="450" width="76" height="76" rx="10" fill="#5C3A31"/>
  <rect x="324" y="528" width="60" height="102" fill="#2D1A14"/>
  <rect x="838" y="528" width="60" height="102" fill="#2D1A14"/>
  <rect x="232" y="650" width="162" height="80" rx="8" fill="#3B2C24"/>
  <rect x="940" y="642" width="148" height="170" rx="18" fill="#C8D1CE"/>
  <rect x="1030" y="284" width="86" height="110" fill="#EDE5D6"/>
  <rect x="764" y="254" width="250" height="120" rx="10" fill="#D0C4B4"/>
  <ellipse cx="580" cy="120" rx="88" ry="18" fill="#99846A"/>
  <path d="M580 120V78" stroke="#99846A" stroke-width="8"/>
  <path d="M492 120C510 142 546 154 580 154C614 154 650 142 668 120" stroke="#99846A" stroke-width="8"/>
  <text x="154" y="824" fill="#624B30" font-family="Georgia, serif" font-size="46">Classic comfort room</text>
</svg>
