<svg width="1200" height="900" viewBox="0 0 1200 900" fill="none" xmlns="http://www.w3.org/2000/svg">
  <rect width="1200" height="900" fill="#150F16"/>
  <rect x="0" y="560" width="1200" height="340" fill="#241824"/>
  <rect x="150" y="140" width="900" height="560" rx="28" fill="#2A1F2E"/>
  <rect x="150" y="140" width="900" height="40" rx="20" fill="#422E46"/>
  <rect x="320" y="410" width="560" height="210" rx="28" fill="#FAF7F1"/>
  <rect x="320" y="386" width="560" height="60" rx="14" fill="#5D3746"/>
  <rect x="430" y="468" width="110" height="94" rx="18" fill="#EBCFDC"/>
  <rect x="660" y="468" width="110" height="94" rx="18" fill="#EBCFDC"/>
  <rect x="520" y="492" width="160" height="72" rx="18" fill="#C05B7C"/>
  <circle cx="176" cy="174" r="10" fill="#D9B55C"/>
  <circle cx="1016" cy="174" r="10" fill="#D9B55C"/>
  <g opacity="0.9">
    <circle cx="306" cy="252" r="24" fill="#D95C72"/>
    <circle cx="366" cy="214" r="20" fill="#D9B55C"/>
    <circle cx="424" cy="244" r="26" fill="#7DC9A9"/>
    <circle cx="872" cy="222" r="24" fill="#D95C72"/>
    <circle cx="926" cy="198" r="18" fill="#D9B55C"/>
    <circle cx="970" cy="236" r="22" fill="#7DC9A9"/>
  </g>
  <path d="M256 198C290 306 354 358 464 404" stroke="#D9B55C" stroke-width="5" stroke-dasharray="10 12"/>
  <path d="M958 186C924 304 870 352 742 404" stroke="#D9B55C" stroke-width="5" stroke-dasharray="10 12"/>
  <path d="M598 180C610 204 652 218 696 218C742 218 792 198 810 168" stroke="#D95C72" stroke-width="6" stroke-linecap="round"/>
  <path d="M552 168C564 196 590 214 610 222C622 202 650 176 676 168" stroke="#D95C72" stroke-width="6" stroke-linecap="round"/>
  <rect x="220" y="628" width="190" height="46" rx="10" fill="#B45474"/>
  <text x="245" y="658" fill="#FFF2E6" font-family="Arial, sans-serif" font-size="28">Romantic setup</text>
</svg>
